<?xml version="1.0" standalone="no"?><!DOCTYPE svg PUBLIC "-//W3C//DTD SVG 1.1//EN" "http://www.w3.org/Graphics/SVG/1.1/DTD/svg11.dtd"><svg class="icon" width="16px" height="16.00px" viewBox="0 0 1024 1024" version="1.1" xmlns="http://www.w3.org/2000/svg"><path fill="#d4d4d4" d="M833.1 128H192.9c-35.3 0-64 28.7-64 64v639.6c0 35.3 28.7 64 64 64h640.3c35.3 0 64-28.7 64-64V192c-0.1-35.4-28.7-64-64.1-64z m32 703.6c0 17.6-14.4 32-32 32H192.9c-17.6 0-32-14.4-32-32v-32.8c1.4 0.6 3 0.9 4.6 0.9h696.3c1.1 0 2.2-0.2 3.3-0.5v32.4z m0-63.3c-1-0.3-2.1-0.5-3.3-0.5H165.5c-1.6 0-3.2 0.3-4.6 0.9V192c0-17.6 14.4-32 32-32h640.3c17.6 0 32 14.4 32 32v576.3zM303.6 224c-43.9 0-79.5 35.6-79.5 79.5s35.6 79.5 79.5 79.5 79.5-35.6 79.5-79.5-35.6-79.5-79.5-79.5z m0 127c-26.2 0-47.5-21.3-47.5-47.5s21.3-47.5 47.5-47.5 47.5 21.3 47.5 47.5-21.3 47.5-47.5 47.5zM786.1 512.6H592.2c-8.8 0-16 7.2-16 16s7.2 16 16 16h193.9c8.8 0 16-7.2 16-16s-7.2-16-16-16zM786.1 576.4H592.2c-8.8 0-16 7.2-16 16s7.2 16 16 16h193.9c8.8 0 16-7.2 16-16s-7.2-16-16-16zM786.1 640.3H592.2c-8.8 0-16 7.2-16 16s7.2 16 16 16h193.9c8.8 0 16-7.2 16-16s-7.2-16-16-16z" /></svg>