<?xml version="1.0" standalone="no"?><!DOCTYPE svg PUBLIC "-//W3C//DTD SVG 1.1//EN" "http://www.w3.org/Graphics/SVG/1.1/DTD/svg11.dtd"><svg class="icon" width="16px" height="16.00px" viewBox="0 0 1024 1024" version="1.1" xmlns="http://www.w3.org/2000/svg"><path fill="#d4d4d4" d="M873.6 842.9L716 685.4c28-29.2 50.2-62.9 66-100.1 17.3-40.8 26-84.1 26-128.7s-8.7-87.9-26-128.7c-16.7-39.4-40.5-74.7-70.9-105.1s-65.7-54.2-105.1-70.9c-40.8-17.3-84.1-26-128.7-26s-87.9 8.7-128.7 26c-39.4 16.7-74.7 40.5-105.1 70.9s-54.2 65.7-70.9 105.1c-17.3 40.8-26 84.1-26 128.7s8.7 87.9 26 128.7c16.7 39.4 40.5 74.7 70.9 105.1s65.7 54.2 105.1 70.9c40.8 17.3 84.1 26 128.7 26s87.9-8.7 128.7-26c21.7-9.2 42.2-20.6 61.4-34.1l161 161c12.4 12.4 32.8 12.4 45.2 0 12.4-12.5 12.4-32.8 0-45.3zM477.3 723.2c-71.2 0-138.2-27.7-188.6-78.1-50.4-50.4-78.1-117.3-78.1-188.6s27.7-138.2 78.1-188.6c50.4-50.4 117.3-78.1 188.6-78.1 71.2 0 138.2 27.7 188.6 78.1 50.4 50.4 78.1 117.3 78.1 188.6s-27.7 138.2-78.1 188.6c-50.4 50.4-117.4 78.1-188.6 78.1z" /></svg>