<?xml version="1.0" standalone="no"?><!DOCTYPE svg PUBLIC "-//W3C//DTD SVG 1.1//EN" "http://www.w3.org/Graphics/SVG/1.1/DTD/svg11.dtd"><svg class="icon" width="16px" height="16.00px" viewBox="0 0 1024 1024" version="1.1" xmlns="http://www.w3.org/2000/svg"><path fill="#8d9091" d="M927.3 256H479.4c-17.7 0-32 14.3-32 32s14.3 32 32 32h447.8c17.7 0 32-14.3 32-32 0.1-17.7-14.3-32-31.9-32zM927.3 479.8H479.4c-17.7 0-32 14.3-32 32s14.3 32 32 32h447.8c17.7 0 32-14.3 32-32 0.1-17.7-14.3-32-31.9-32zM927.3 703.8H479.4c-17.7 0-32 14.3-32 32s14.3 32 32 32h447.8c17.7 0 32-14.3 32-32 0.1-17.6-14.3-32-31.9-32zM287.3 256H95.4c-17.7 0-32 14.3-32 32s14.3 32 32 32h191.9c17.7 0 32-14.3 32-32s-14.3-32-32-32zM287.3 479.8H95.4c-17.7 0-32 14.3-32 32s14.3 32 32 32h191.9c17.7 0 32-14.3 32-32s-14.3-32-32-32zM287.3 703.8H95.4c-17.7 0-32 14.3-32 32s14.3 32 32 32h191.9c17.7 0 32-14.3 32-32 0-17.6-14.3-32-32-32z" /></svg>