<?xml version="1.0" standalone="no"?><!DOCTYPE svg PUBLIC "-//W3C//DTD SVG 1.1//EN" "http://www.w3.org/Graphics/SVG/1.1/DTD/svg11.dtd"><svg class="icon" width="16px" height="16.00px" viewBox="0 0 1024 1024" version="1.1" xmlns="http://www.w3.org/2000/svg"><path fill="#d4d4d4" d="M556.6 513.2L827.8 242c12.5-12.5 12.5-32.8 0-45.3s-32.8-12.5-45.3 0L511.3 468 240.1 196.7c-12.5-12.5-32.8-12.5-45.3 0s-12.5 32.8 0 45.3l271.3 271.3-271.3 271.2c-12.5 12.5-12.5 32.8 0 45.3s32.8 12.5 45.3 0l271.3-271.3 271.3 271.3c12.5 12.5 32.8 12.5 45.3 0s12.5-32.8 0-45.3L556.6 513.2z" /></svg>