<?xml version="1.0" standalone="no"?><!DOCTYPE svg PUBLIC "-//W3C//DTD SVG 1.1//EN" "http://www.w3.org/Graphics/SVG/1.1/DTD/svg11.dtd"><svg class="icon" width="16px" height="16.00px" viewBox="0 0 1024 1024" version="1.1" xmlns="http://www.w3.org/2000/svg"><path fill="#ffffff" d="M892.3 224H133c-37.9 0-68.8 30.9-68.8 68.8V795c0 37.9 30.9 68.8 68.8 68.8h759.3c37.9 0 68.8-30.9 68.8-68.8V292.7c0-37.9-30.8-68.7-68.8-68.7zM133 288h759.3c2.6 0 4.8 2.1 4.8 4.8v57.7H128.2v-57.7c0-2.7 2.2-4.8 4.8-4.8z m759.3 511.7H133c-2.6 0-4.8-2.1-4.8-4.8V414.3h768.9V795c0 2.6-2.1 4.7-4.8 4.7z" /></svg>